<svg xmlns="http://www.w3.org/2000/svg" xmlns:xlink="http://www.w3.org/1999/xlink" viewBox="-1544 3601 25 25">
  <defs>
    <style>
      .cls-1, .cls-3 {
        fill: #fff;
      }

      .cls-2 {
        clip-path: url(#clip-path);
      }

      .cls-3 {
        opacity: 0.5;
      }

      .cls-4 {
        fill: #081a26;
      }
    </style>
    <clipPath id="clip-path">
      <rect id="Rectangle_11" data-name="Rectangle 11" class="cls-1" width="25" height="25" transform="translate(533 3511)"/>
    </clipPath>
  </defs>
  <g id="Mask_Group_6" data-name="Mask Group 6" class="cls-2" transform="translate(-2077 90)">
    <g id="_001-dribbble" data-name="001-dribbble" transform="translate(533 3511)">
      <circle id="Ellipse_9" data-name="Ellipse 9" class="cls-3" cx="12.5" cy="12.5" r="12.5" transform="translate(0 0)"/>
      <g id="Group_20" data-name="Group 20">
        <path id="Path_12" data-name="Path 12" class="cls-4" d="M12.5,4.562A7.938,7.938,0,1,0,20.449,12.5,7.953,7.953,0,0,0,12.5,4.562Zm5.23,3.747A6.666,6.666,0,0,1,19.213,12.4a16.587,16.587,0,0,0-3.106-.3,12.555,12.555,0,0,0-1.531.089c-.044-.107-.088-.213-.134-.32-.135-.317-.28-.632-.43-.942A9.146,9.146,0,0,0,17.73,8.308ZM12.5,5.8A6.692,6.692,0,0,1,16.924,7.47a7.666,7.666,0,0,1-3.468,2.38,36.3,36.3,0,0,0-2.47-3.873A6.7,6.7,0,0,1,12.5,5.8Zm-2.884.651a43.372,43.372,0,0,1,2.457,3.825A25.417,25.417,0,0,1,6,11.089H5.937A6.733,6.733,0,0,1,9.615,6.455ZM5.785,12.511q0-.083,0-.166h.176a25.138,25.138,0,0,0,6.707-.953c.181.354.353.713.513,1.072-.075.022-.15.043-.223.067a10.739,10.739,0,0,0-5.485,4.423,6.673,6.673,0,0,1-1.691-4.444ZM12.5,19.217a6.688,6.688,0,0,1-4.1-1.4,9.277,9.277,0,0,1,5.262-4.163l.007,0a27.947,27.947,0,0,1,1.42,5.041,6.678,6.678,0,0,1-2.594.521Zm3.8-1.182a29.337,29.337,0,0,0-1.287-4.709,8.806,8.806,0,0,1,1.351-.1,9.979,9.979,0,0,1,2.757.385A6.719,6.719,0,0,1,16.3,18.035Z"/>
      </g>
    </g>
  </g>
</svg>
