<svg xmlns="http://www.w3.org/2000/svg" width="38.97" height="38" viewBox="0 0 38.97 38">
  <metadata><?xpacket begin="﻿" id="W5M0MpCehiHzreSzNTczkc9d"?>
<x:xmpmeta xmlns:x="adobe:ns:meta/" x:xmptk="Adobe XMP Core 5.6-c142 79.160924, 2017/07/13-01:06:39        ">
   <rdf:RDF xmlns:rdf="http://www.w3.org/1999/02/22-rdf-syntax-ns#">
      <rdf:Description rdf:about=""/>
   </rdf:RDF>
</x:xmpmeta>
                                                                                                    
                                                                                                    
                                                                                                    
                                                                                                    
                                                                                                    
                                                                                                    
                                                                                                    
                                                                                                    
                                                                                                    
                                                                                                    
                                                                                                    
                                                                                                    
                                                                                                    
                                                                                                    
                                                                                                    
                                                                                                    
                                                                                                    
                                                                                                    
                                                                                                    
                                                                                                    
                           
<?xpacket end="w"?></metadata>
<defs>
    <style>
      .cls-1 {
        fill-rule: evenodd;
      }
    </style>
  </defs>
  <path id="Forma_1" data-name="Forma 1" class="cls-1" d="M5570.72,602.007l1.43-1.394,1.54-1.5a1.338,1.338,0,0,0,.01-1.911l-7.02-6.846a1.409,1.409,0,0,0-1.95.015q-1.74,1.7-3.48,3.405l9,8.786A4.686,4.686,0,0,1,5570.72,602.007Zm6.94,14.871c-1.47-1.237-2.89-2.55-4.26-3.89s-2.71-2.719-3.98-4.164a4.226,4.226,0,0,1-.7-4.3l-9.25-9.015c-2.15,2.156-1.87,7.5.48,12.2a34.583,34.583,0,0,0,3.68,5.611,50.187,50.187,0,0,0,4.41,4.9,48.727,48.727,0,0,0,5.01,4.311,34.718,34.718,0,0,0,5.75,3.583c4.82,2.3,10.31,2.548,12.51.449l-9.24-9.017A4.542,4.542,0,0,1,5577.66,616.878Zm18.93,2.659-7.01-6.844a1.422,1.422,0,0,0-1.96.006h0l-1.54,1.5-1.43,1.394a3.6,3.6,0,0,1-.57.462l9,8.787c1.17-1.137,2.33-2.269,3.5-3.4A1.323,1.323,0,0,0,5596.59,619.537Z" transform="translate(-5558 -590)"/>
</svg>
