<svg xmlns="http://www.w3.org/2000/svg" width="20" height="19" viewBox="0 0 20 19">
  <metadata><?xpacket begin="﻿" id="W5M0MpCehiHzreSzNTczkc9d"?>
<x:xmpmeta xmlns:x="adobe:ns:meta/" x:xmptk="Adobe XMP Core 5.6-c142 79.160924, 2017/07/13-01:06:39        ">
   <rdf:RDF xmlns:rdf="http://www.w3.org/1999/02/22-rdf-syntax-ns#">
      <rdf:Description rdf:about=""/>
   </rdf:RDF>
</x:xmpmeta>
                                                                                                    
                                                                                                    
                                                                                                    
                                                                                                    
                                                                                                    
                                                                                                    
                                                                                                    
                                                                                                    
                                                                                                    
                                                                                                    
                                                                                                    
                                                                                                    
                                                                                                    
                                                                                                    
                                                                                                    
                                                                                                    
                                                                                                    
                                                                                                    
                                                                                                    
                                                                                                    
                           
<?xpacket end="w"?></metadata>
<defs>
    <style>
      .cls-1 {
        fill: #fc214a;
        fill-rule: evenodd;
      }
    </style>
  </defs>
  <path class="cls-1" d="M1997.4,648.916a2.239,2.239,0,0,0,.6-1.577,2.355,2.355,0,0,0-.56-1.367,2,2,0,0,0-.55-2.443,5.024,5.024,0,0,0-3.45-.763,14.613,14.613,0,0,0-2.12.25h0c-0.22.036-.45,0.08-0.68,0.127a6.369,6.369,0,0,1,.54-2.308c0.6-1.693.57-2.988-.11-3.854a2.853,2.853,0,0,0-2.19-.982,1.109,1.109,0,0,0-.83.35,2.488,2.488,0,0,0-.36,1.895c-0.57,1.407-2.16,4.856-3.51,5.813a0.287,0.287,0,0,0-.07.056,4.127,4.127,0,0,0-.84,1.168,1.949,1.949,0,0,0-.86-0.2h-2.62a1.727,1.727,0,0,0-1.79,1.653v6.456a1.724,1.724,0,0,0,1.79,1.653h2.62a1.913,1.913,0,0,0,1.04-.3l1.01,0.112a47.116,47.116,0,0,0,5.73.29c0.52,0.035,1,.055,1.45.055a10.367,10.367,0,0,0,2-.167,3.8,3.8,0,0,0,2.67-1.533,2.235,2.235,0,0,0,.29-1.522,2.437,2.437,0,0,0,.98-2.062A2.633,2.633,0,0,0,1997.4,648.916Zm-17.61,4.855a0.607,0.607,0,0,1-.63-0.58v-6.46a0.611,0.611,0,0,1,.63-0.58h2.62a0.607,0.607,0,0,1,.63.58v6.456a0.6,0.6,0,0,1-.63.581h-2.62v0Zm16.51-5.32a0.5,0.5,0,0,0-.08.648,1.525,1.525,0,0,1,.2.664,1.557,1.557,0,0,1-.81,1.374,0.53,0.53,0,0,0-.2.612,1.3,1.3,0,0,1-.11,1.025,2.737,2.737,0,0,1-1.9,1.009,12.3,12.3,0,0,1-3.14.088h-0.06a45.95,45.95,0,0,1-5.59-.282h-0.01l-0.43-.048a1.991,1.991,0,0,0,.03-0.35v-6.46a1.611,1.611,0,0,0-.08-0.493,3.356,3.356,0,0,1,.8-1.362c1.94-1.415,3.82-6.187,3.91-6.393a0.483,0.483,0,0,0,.02-0.267,2.25,2.25,0,0,1,.06-1.152,1.594,1.594,0,0,1,1.21.537c0.44,0.56.42,1.561-.05,2.888-0.72,2.022-.78,3.087-0.21,3.556a1,1,0,0,0,.94.155c0.26-.055.51-0.1,0.75-0.139a0.371,0.371,0,0,1,.05-0.012c1.32-.266,3.69-0.429,4.51.262a1.083,1.083,0,0,1,.15,1.451,0.506,0.506,0,0,0,.1.691,1.483,1.483,0,0,1,.48.926A1.435,1.435,0,0,1,1996.3,648.451Z" transform="translate(-1978 -636)"/>
</svg>
